<?xml version="1.0" encoding="UTF-8"?>
<svg width="1024" height="1024" viewBox="0 0 1024 1024" fill="none" xmlns="http://www.w3.org/2000/svg">
  <!-- Background Circle -->
  <circle cx="512" cy="512" r="512" fill="#2196F3"/>
  
  <!-- Medical Cross -->
  <path d="M512 256C381.5 256 272 365.5 272 496C272 626.5 381.5 736 512 736C642.5 736 752 626.5 752 496C752 365.5 642.5 256 512 256ZM512 672C419.5 672 344 596.5 344 504C344 411.5 419.5 336 512 336C604.5 336 680 411.5 680 504C680 596.5 604.5 672 512 672Z" fill="white"/>
  
  <!-- Heart Shape -->
  <path d="M512 448C512 448 544 416 576 416C608 416 640 448 640 480C640 512 576 576 512 640C448 576 384 512 384 480C384 448 416 416 448 416C480 416 512 448 512 448Z" fill="white"/>
</svg> 